<mxfile host="www.draw.io" modified="2020-02-22T16:45:25.699Z" agent="Mozilla/5.0 (Windows NT 10.0; Win64; x64) AppleWebKit/537.36 (KHTML, like Gecko) Chrome/80.0.3987.116 Safari/537.36" etag="oDvDdSVyqNGmNRVba2CD" version="12.7.4" type="github">
  <diagram id="9igphwpJTSqrZ78agBEg" name="Page-1">
    <mxGraphModel dx="1718" dy="460" grid="1" gridSize="10" guides="1" tooltips="1" connect="1" arrows="1" fold="1" page="1" pageScale="1" pageWidth="850" pageHeight="1100" math="0" shadow="0">
      <root>
        <mxCell id="0" />
        <mxCell id="1" parent="0" />
        <mxCell id="l8urjQfcuTqYPJL1e2Fy-1" value="1.0&lt;br&gt;Login/signup" style="ellipse;whiteSpace=wrap;html=1;" parent="1" vertex="1">
          <mxGeometry x="80" y="100" width="90" height="50" as="geometry" />
        </mxCell>
        <mxCell id="l8urjQfcuTqYPJL1e2Fy-2" value="Student: Public University&amp;nbsp;" style="text;html=1;strokeColor=none;fillColor=none;align=center;verticalAlign=middle;whiteSpace=wrap;rounded=0;fontSize=16;fontStyle=1" parent="1" vertex="1">
          <mxGeometry x="310" y="21" width="240" height="20" as="geometry" />
        </mxCell>
        <mxCell id="l8urjQfcuTqYPJL1e2Fy-4" value="2.0&lt;br&gt;Application&lt;br&gt;[Public]" style="ellipse;whiteSpace=wrap;html=1;" parent="1" vertex="1">
          <mxGeometry x="190" y="170" width="90" height="50" as="geometry" />
        </mxCell>
        <mxCell id="l8urjQfcuTqYPJL1e2Fy-5" style="edgeStyle=orthogonalEdgeStyle;rounded=0;orthogonalLoop=1;jettySize=auto;html=1;exitX=0.5;exitY=1;exitDx=0;exitDy=0;fontSize=16;" parent="1" source="l8urjQfcuTqYPJL1e2Fy-4" target="l8urjQfcuTqYPJL1e2Fy-4" edge="1">
          <mxGeometry relative="1" as="geometry" />
        </mxCell>
        <mxCell id="l8urjQfcuTqYPJL1e2Fy-7" value="3.0&lt;br&gt;Apply" style="ellipse;whiteSpace=wrap;html=1;" parent="1" vertex="1">
          <mxGeometry x="310" y="240" width="90" height="50" as="geometry" />
        </mxCell>
        <mxCell id="l8urjQfcuTqYPJL1e2Fy-8" value="4.0&lt;br&gt;Hotel Booking" style="ellipse;whiteSpace=wrap;html=1;" parent="1" vertex="1">
          <mxGeometry x="430" y="305" width="90" height="50" as="geometry" />
        </mxCell>
        <mxCell id="l8urjQfcuTqYPJL1e2Fy-12" value="STUDENT" style="rounded=0;whiteSpace=wrap;html=1;fontSize=16;" parent="1" vertex="1">
          <mxGeometry x="290" y="100" width="100" height="30" as="geometry" />
        </mxCell>
        <mxCell id="l8urjQfcuTqYPJL1e2Fy-14" value="" style="line;strokeWidth=2;html=1;fontSize=16;" parent="1" vertex="1">
          <mxGeometry x="10" y="230" width="130" height="10" as="geometry" />
        </mxCell>
        <mxCell id="l8urjQfcuTqYPJL1e2Fy-16" value="" style="line;strokeWidth=2;html=1;fontSize=16;" parent="1" vertex="1">
          <mxGeometry x="10" y="260" width="130" height="10" as="geometry" />
        </mxCell>
        <mxCell id="l8urjQfcuTqYPJL1e2Fy-17" value="STUDENTALLINFO" style="text;html=1;align=center;verticalAlign=middle;resizable=0;points=[];autosize=1;fontSize=16;" parent="1" vertex="1">
          <mxGeometry x="-5" y="240" width="160" height="20" as="geometry" />
        </mxCell>
        <mxCell id="l8urjQfcuTqYPJL1e2Fy-19" value="" style="endArrow=classic;html=1;fontSize=16;" parent="1" edge="1">
          <mxGeometry width="50" height="50" relative="1" as="geometry">
            <mxPoint x="100" y="150" as="sourcePoint" />
            <mxPoint x="100" y="230" as="targetPoint" />
          </mxGeometry>
        </mxCell>
        <mxCell id="l8urjQfcuTqYPJL1e2Fy-20" value="" style="endArrow=classic;html=1;fontSize=16;exitX=1;exitY=1;exitDx=0;exitDy=0;" parent="1" source="l8urjQfcuTqYPJL1e2Fy-1" target="l8urjQfcuTqYPJL1e2Fy-4" edge="1">
          <mxGeometry width="50" height="50" relative="1" as="geometry">
            <mxPoint x="470" y="380" as="sourcePoint" />
            <mxPoint x="520" y="330" as="targetPoint" />
          </mxGeometry>
        </mxCell>
        <mxCell id="l8urjQfcuTqYPJL1e2Fy-22" value="" style="line;strokeWidth=2;html=1;fontSize=16;" parent="1" vertex="1">
          <mxGeometry x="105" y="340" width="130" height="10" as="geometry" />
        </mxCell>
        <mxCell id="l8urjQfcuTqYPJL1e2Fy-23" value="PUBLICUNIUNIT" style="text;html=1;align=center;verticalAlign=middle;resizable=0;points=[];autosize=1;fontSize=16;" parent="1" vertex="1">
          <mxGeometry x="100" y="320" width="140" height="20" as="geometry" />
        </mxCell>
        <mxCell id="l8urjQfcuTqYPJL1e2Fy-24" value="" style="line;strokeWidth=2;html=1;fontSize=16;" parent="1" vertex="1">
          <mxGeometry x="105" y="310" width="130" height="10" as="geometry" />
        </mxCell>
        <mxCell id="l8urjQfcuTqYPJL1e2Fy-25" value="" style="endArrow=classic;html=1;fontSize=16;exitX=0.287;exitY=0.991;exitDx=0;exitDy=0;exitPerimeter=0;entryX=0.75;entryY=0.5;entryDx=0;entryDy=0;entryPerimeter=0;" parent="1" source="l8urjQfcuTqYPJL1e2Fy-4" target="l8urjQfcuTqYPJL1e2Fy-24" edge="1">
          <mxGeometry width="50" height="50" relative="1" as="geometry">
            <mxPoint x="130" y="350" as="sourcePoint" />
            <mxPoint x="180" y="300" as="targetPoint" />
          </mxGeometry>
        </mxCell>
        <mxCell id="l8urjQfcuTqYPJL1e2Fy-26" value="" style="endArrow=classic;html=1;fontSize=16;exitX=0.943;exitY=0.839;exitDx=0;exitDy=0;exitPerimeter=0;" parent="1" source="l8urjQfcuTqYPJL1e2Fy-4" target="l8urjQfcuTqYPJL1e2Fy-7" edge="1">
          <mxGeometry width="50" height="50" relative="1" as="geometry">
            <mxPoint x="200" y="440" as="sourcePoint" />
            <mxPoint x="250" y="390" as="targetPoint" />
          </mxGeometry>
        </mxCell>
        <mxCell id="l8urjQfcuTqYPJL1e2Fy-27" value="" style="endArrow=classic;html=1;fontSize=16;exitX=0;exitY=0.5;exitDx=0;exitDy=0;entryX=1;entryY=0.5;entryDx=0;entryDy=0;entryPerimeter=0;" parent="1" source="l8urjQfcuTqYPJL1e2Fy-4" target="l8urjQfcuTqYPJL1e2Fy-14" edge="1">
          <mxGeometry width="50" height="50" relative="1" as="geometry">
            <mxPoint x="200" y="330" as="sourcePoint" />
            <mxPoint x="250" y="280" as="targetPoint" />
          </mxGeometry>
        </mxCell>
        <mxCell id="l8urjQfcuTqYPJL1e2Fy-30" value="" style="line;strokeWidth=2;html=1;fontSize=16;" parent="1" vertex="1">
          <mxGeometry x="245" y="385" width="130" height="10" as="geometry" />
        </mxCell>
        <mxCell id="l8urjQfcuTqYPJL1e2Fy-31" value="PUBLICAPPLYDATA" style="text;html=1;align=center;verticalAlign=middle;resizable=0;points=[];autosize=1;fontSize=16;" parent="1" vertex="1">
          <mxGeometry x="230" y="365" width="160" height="20" as="geometry" />
        </mxCell>
        <mxCell id="l8urjQfcuTqYPJL1e2Fy-32" value="" style="line;strokeWidth=2;html=1;fontSize=16;" parent="1" vertex="1">
          <mxGeometry x="245" y="355" width="130" height="10" as="geometry" />
        </mxCell>
        <mxCell id="l8urjQfcuTqYPJL1e2Fy-33" value="" style="endArrow=classic;html=1;fontSize=16;exitX=0.322;exitY=1.04;exitDx=0;exitDy=0;exitPerimeter=0;entryX=0.638;entryY=0.6;entryDx=0;entryDy=0;entryPerimeter=0;" parent="1" source="l8urjQfcuTqYPJL1e2Fy-7" target="l8urjQfcuTqYPJL1e2Fy-32" edge="1">
          <mxGeometry width="50" height="50" relative="1" as="geometry">
            <mxPoint x="390" y="310" as="sourcePoint" />
            <mxPoint x="440" y="260" as="targetPoint" />
          </mxGeometry>
        </mxCell>
        <mxCell id="l8urjQfcuTqYPJL1e2Fy-34" value="" style="endArrow=classic;html=1;fontSize=16;exitX=1;exitY=1;exitDx=0;exitDy=0;entryX=0.033;entryY=0.22;entryDx=0;entryDy=0;entryPerimeter=0;" parent="1" source="l8urjQfcuTqYPJL1e2Fy-7" target="l8urjQfcuTqYPJL1e2Fy-8" edge="1">
          <mxGeometry width="50" height="50" relative="1" as="geometry">
            <mxPoint x="390" y="310" as="sourcePoint" />
            <mxPoint x="440" y="260" as="targetPoint" />
          </mxGeometry>
        </mxCell>
        <mxCell id="l8urjQfcuTqYPJL1e2Fy-35" value="" style="line;strokeWidth=2;html=1;fontSize=16;" parent="1" vertex="1">
          <mxGeometry x="390" y="430" width="130" height="10" as="geometry" />
        </mxCell>
        <mxCell id="l8urjQfcuTqYPJL1e2Fy-36" value="HOTELINFO" style="text;html=1;align=center;verticalAlign=middle;resizable=0;points=[];autosize=1;fontSize=16;" parent="1" vertex="1">
          <mxGeometry x="400" y="410" width="110" height="20" as="geometry" />
        </mxCell>
        <mxCell id="l8urjQfcuTqYPJL1e2Fy-37" value="" style="line;strokeWidth=2;html=1;fontSize=16;" parent="1" vertex="1">
          <mxGeometry x="390" y="400" width="130" height="10" as="geometry" />
        </mxCell>
        <mxCell id="l8urjQfcuTqYPJL1e2Fy-38" value="" style="endArrow=classic;html=1;fontSize=16;exitX=0;exitY=0.5;exitDx=0;exitDy=0;" parent="1" source="l8urjQfcuTqYPJL1e2Fy-8" target="l8urjQfcuTqYPJL1e2Fy-23" edge="1">
          <mxGeometry width="50" height="50" relative="1" as="geometry">
            <mxPoint x="390" y="310" as="sourcePoint" />
            <mxPoint x="440" y="260" as="targetPoint" />
          </mxGeometry>
        </mxCell>
        <mxCell id="l8urjQfcuTqYPJL1e2Fy-39" value="" style="endArrow=classic;html=1;fontSize=16;entryX=0.573;entryY=-0.25;entryDx=0;entryDy=0;entryPerimeter=0;exitX=0.375;exitY=0.994;exitDx=0;exitDy=0;exitPerimeter=0;" parent="1" source="l8urjQfcuTqYPJL1e2Fy-8" target="l8urjQfcuTqYPJL1e2Fy-36" edge="1">
          <mxGeometry width="50" height="50" relative="1" as="geometry">
            <mxPoint x="463" y="360" as="sourcePoint" />
            <mxPoint x="440" y="260" as="targetPoint" />
          </mxGeometry>
        </mxCell>
        <mxCell id="l8urjQfcuTqYPJL1e2Fy-40" value="" style="line;strokeWidth=2;html=1;fontSize=16;" parent="1" vertex="1">
          <mxGeometry x="545.63" y="430" width="167.5" height="10" as="geometry" />
        </mxCell>
        <mxCell id="l8urjQfcuTqYPJL1e2Fy-41" value="HOTELBOOKINGINFO" style="text;html=1;align=center;verticalAlign=middle;resizable=0;points=[];autosize=1;fontSize=16;" parent="1" vertex="1">
          <mxGeometry x="540" y="410" width="180" height="20" as="geometry" />
        </mxCell>
        <mxCell id="l8urjQfcuTqYPJL1e2Fy-42" value="" style="line;strokeWidth=2;html=1;fontSize=16;" parent="1" vertex="1">
          <mxGeometry x="546.88" y="400" width="166.25" height="10" as="geometry" />
        </mxCell>
        <mxCell id="l8urjQfcuTqYPJL1e2Fy-43" value="" style="endArrow=classic;html=1;fontSize=16;exitX=1;exitY=1;exitDx=0;exitDy=0;" parent="1" source="l8urjQfcuTqYPJL1e2Fy-8" target="l8urjQfcuTqYPJL1e2Fy-42" edge="1">
          <mxGeometry width="50" height="50" relative="1" as="geometry">
            <mxPoint x="370" y="340" as="sourcePoint" />
            <mxPoint x="420" y="290" as="targetPoint" />
          </mxGeometry>
        </mxCell>
        <mxCell id="l8urjQfcuTqYPJL1e2Fy-44" value="" style="endArrow=classic;html=1;fontSize=16;exitX=1;exitY=0.4;exitDx=0;exitDy=0;exitPerimeter=0;entryX=0;entryY=0.75;entryDx=0;entryDy=0;" parent="1" source="l8urjQfcuTqYPJL1e2Fy-1" target="l8urjQfcuTqYPJL1e2Fy-12" edge="1">
          <mxGeometry width="50" height="50" relative="1" as="geometry">
            <mxPoint x="280" y="200" as="sourcePoint" />
            <mxPoint x="330" y="150" as="targetPoint" />
          </mxGeometry>
        </mxCell>
      </root>
    </mxGraphModel>
  </diagram>
</mxfile>
